<svg xmlns="http://www.w3.org/2000/svg" width="800" height="280" viewBox="0 0 800 280" role="img" aria-labelledby="title"><title id="title">Повнота та зв’язність</title><defs><marker id="arrow" viewBox="0 0 10 10" refX="9" refY="5" markerWidth="7" markerHeight="7" orient="auto-start-reverse"><path d="M0 0 L10 5 L0 10 Z" fill="#475569"/></marker></defs><rect width="800" height="280" rx="12" fill="#f8fafc"/><g font-family="Arial, sans-serif" fill="#0f172a"><g transform="translate(10 10)"><text x="190" y="27" text-anchor="middle" font-size="18" font-weight="bold">Повний граф K₄</text><path d="M105 80 L266 80" fill="none" stroke="#475569" stroke-width="2.5"/><path d="M290 100 L290 166" fill="none" stroke="#475569" stroke-width="2.5"/><path d="M270 190 L109 190" fill="none" stroke="#475569" stroke-width="2.5"/><path d="M85 170 L85 104" fill="none" stroke="#475569" stroke-width="2.5"/><path d="M102.62320536127133 89.45635409629193 L268.8521535664744 178.6523750844497" fill="none" stroke="#475569" stroke-width="2.5"/><path d="M272.37679463872865 89.45635409629193 L106.1478464335256 178.6523750844497" fill="none" stroke="#475569" stroke-width="2.5"/><circle cx="85" cy="80" r="20" fill="#dbeafe" stroke="#2563eb" stroke-width="2"/><text x="85" y="86" text-anchor="middle" font-size="18">A</text><circle cx="290" cy="80" r="20" fill="#dbeafe" stroke="#2563eb" stroke-width="2"/><text x="290" y="86" text-anchor="middle" font-size="18">B</text><circle cx="290" cy="190" r="20" fill="#dbeafe" stroke="#2563eb" stroke-width="2"/><text x="290" y="196" text-anchor="middle" font-size="18">C</text><circle cx="85" cy="190" r="20" fill="#dbeafe" stroke="#2563eb" stroke-width="2"/><text x="85" y="196" text-anchor="middle" font-size="18">D</text><text x="190" y="242" text-anchor="middle" font-size="15">n = 4, m = 6; усі ступені — 3</text></g><path d="M400 15 V265" stroke="#cbd5e1"/><g transform="translate(410 10)"><text x="190" y="27" text-anchor="middle" font-size="18" font-weight="bold">Зв’язність</text><path d="M65 90 L166 90" fill="none" stroke="#475569" stroke-width="2.5"/><path d="M210 90 L311 90" fill="none" stroke="#475569" stroke-width="2.5"/><path d="M80 185 L136 185" fill="none" stroke="#475569" stroke-width="2.5"/><circle cx="45" cy="90" r="20" fill="#dbeafe" stroke="#2563eb" stroke-width="2"/><text x="45" y="96" text-anchor="middle" font-size="18">A</text><circle cx="190" cy="90" r="20" fill="#dbeafe" stroke="#2563eb" stroke-width="2"/><text x="190" y="96" text-anchor="middle" font-size="18">B</text><circle cx="335" cy="90" r="20" fill="#dbeafe" stroke="#2563eb" stroke-width="2"/><text x="335" y="96" text-anchor="middle" font-size="18">C</text><circle cx="60" cy="185" r="20" fill="#dbeafe" stroke="#2563eb" stroke-width="2"/><text x="60" y="191" text-anchor="middle" font-size="18">D</text><circle cx="160" cy="185" r="20" fill="#dbeafe" stroke="#2563eb" stroke-width="2"/><text x="160" y="191" text-anchor="middle" font-size="18">E</text><circle cx="315" cy="185" r="20" fill="#dbeafe" stroke="#2563eb" stroke-width="2"/><text x="315" y="191" text-anchor="middle" font-size="18">F</text><text x="190" y="242" text-anchor="middle" font-size="15">Угорі: зв’язний; унизу: дві компоненти</text></g></g></svg>
